<svg xmlns="http://www.w3.org/2000/svg" width="100" height="73.226" viewBox="0 0 100 73.226">
  <g id="Symbol_1_16" data-name="Symbol 1 – 16" transform="translate(-150 -69)">
    <g id="Group_2942" data-name="Group 2942" transform="translate(150 79.987)">
      <path id="Path_845" data-name="Path 845" d="M686.28,474.146a11.576,11.576,0,1,1,11.576-11.576,11.589,11.589,0,0,1-11.576,11.576m0-20.269a8.693,8.693,0,1,0,8.693,8.693,8.7,8.7,0,0,0-8.693-8.693" transform="translate(-635.558 -411.907)" fill="#fff"/>
      <path id="Path_846" data-name="Path 846" d="M778.339,474.163a8.739,8.739,0,0,1-6.619-2.554,10.838,10.838,0,0,1-2.576-7.314V451.017h2.883l0,13.378a8.023,8.023,0,0,0,1.8,5.24,7.024,7.024,0,0,0,9.035,0,8.024,8.024,0,0,0,1.795-5.245V451.017h2.883v13.278a10.839,10.839,0,0,1-2.576,7.314,8.739,8.739,0,0,1-6.618,2.554" transform="translate(-706.85 -411.924)" fill="#fff"/>
      <path id="Path_847" data-name="Path 847" d="M870.372,453.058a8.42,8.42,0,0,0-5.708-2.039H858.84v0h-2.883v23.146h2.883v-8.574h5.823l.164,0a8.342,8.342,0,0,0,5.544-2.042,7.829,7.829,0,0,0,0-10.491M868.4,461.43a5.568,5.568,0,0,1-3.635,1.251H858.84v-8.751h5.914a5.569,5.569,0,0,1,3.642,1.25,4.959,4.959,0,0,1,0,6.252" transform="translate(-772.389 -411.924)" fill="#fff"/>
      <path id="Path_848" data-name="Path 848" d="M535.249,462.613h-5.026L527.34,465.5h7.4a8.7,8.7,0,1,1-2.229-9.249l2.039-2.039a11.569,11.569,0,1,0,3.582,8.4Z" transform="translate(-514.982 -411.907)" fill="#fff"/>
      <path id="Path_849" data-name="Path 849" d="M622.992,465.088c-.2-.172-.41-.332-.613-.482a6.573,6.573,0,0,0,1.471-1.057,7.83,7.83,0,0,0,0-10.491,8.42,8.42,0,0,0-5.708-2.039h-5.823v0h-2.884v23.146h2.884v-8.574h5.788l.092,0a8.9,8.9,0,0,1,5.993,8.571h2.883a11.432,11.432,0,0,0-4.083-9.074m-10.673-11.16h5.913a5.569,5.569,0,0,1,3.642,1.25,4.958,4.958,0,0,1,0,6.252,5.567,5.567,0,0,1-3.635,1.251h-5.92Z" transform="translate(-586.286 -411.924)" fill="#fff"/>
      <rect id="Rectangle_281" data-name="Rectangle 281" width="4.325" height="34.718" transform="translate(95.615 0.009)" fill="#fff"/>
      <path id="Path_850" data-name="Path 850" d="M800.1,326.633l-24.026-23.846v23.846h-4.325v-34.6l24.026,24.146V292.035H800.1Z" transform="translate(-708.819 -291.906)" fill="#fff"/>
      <path id="Path_851" data-name="Path 851" d="M545.012,326.817h4.845L532.419,292.28l-17.437,34.537h4.844l6.55-12.974h12.085Zm-16.451-17.3,3.859-7.643,3.859,7.643Z" transform="translate(-514.982 -292.091)" fill="#fff"/>
      <path id="Path_852" data-name="Path 852" d="M660.453,361.9h-7.538l-4.325,4.325h11.1a13.036,13.036,0,0,1-25.235-2.984,12.236,12.236,0,0,1-4.4-1.573c0,.056,0,.112,0,.168a17.362,17.362,0,0,0,34.724.064Z" transform="translate(-601.851 -344.475)" fill="#fff"/>
      <path id="Path_853" data-name="Path 853" d="M707.787,299.389l3.058-3.058a17.3,17.3,0,0,0-11.989-4.821c-.222,0-.442.009-.663.017a12.123,12.123,0,0,1,1.692,4.352,12.986,12.986,0,0,1,7.9,3.51" transform="translate(-653.291 -291.51)" fill="#fff"/>
    </g>
    <g id="Group_2943" data-name="Group 2943" transform="translate(174.301 69)">
      <path id="Path_854" data-name="Path 854" d="M625.844,306.5A10.164,10.164,0,0,1,615.68,296.39a10.165,10.165,0,1,0,18.785,5.386c0-.017,0-.035,0-.052a10.157,10.157,0,0,1-8.621,4.778" transform="translate(-614.136 -284.207)" fill="#c10020"/>
      <path id="Path_855" data-name="Path 855" d="M632.6,303.737a10.157,10.157,0,0,0,8.621-4.778,10.118,10.118,0,0,0-2.174-6.232,10.167,10.167,0,0,1-15.96,4.432,10.167,10.167,0,0,0,9.513,6.578" transform="translate(-620.896 -281.442)" fill="#ffbf00"/>
      <path id="Path_856" data-name="Path 856" d="M637.044,282.707a10.166,10.166,0,0,1-15.75-3.253,10.192,10.192,0,0,0-.21,7.684,10.166,10.166,0,0,0,15.96-4.431" transform="translate(-618.89 -271.421)" fill="#dc6700"/>
      <path id="Path_857" data-name="Path 857" d="M647.236,255.421a9.942,9.942,0,0,1-1.435-1.166,10.135,10.135,0,0,1-3.21-7.412c0-.055,0-.109,0-.163a10.177,10.177,0,0,0-4.193,12.382,10.168,10.168,0,0,0,11.688-1.1,10.176,10.176,0,0,0-2.853-2.541" transform="translate(-631.931 -246.68)" fill="#c10020"/>
      <path id="Path_858" data-name="Path 858" d="M672.873,270.675a10.117,10.117,0,0,1-3.3,1.418c.092.094.186.186.282.276a9.94,9.94,0,0,0,1.435,1.166,10.187,10.187,0,0,1,2.849,2.537c.007-.151.011-.3.011-.456a10.121,10.121,0,0,0-1.281-4.941" transform="translate(-655.988 -264.794)" fill="#dc6700"/>
    </g>
  </g>
</svg>
